<svg version="1.1" xmlns="http://www.w3.org/2000/svg" viewBox="0 0 234.4000244140625 122.39999389648438" width="234.4000244140625" height="122.39999389648438"><!-- svg-source:excalidraw --><metadata><!-- payload-type:application/vnd.excalidraw+json --><!-- payload-version:2 --><!-- payload-start -->eyJ2ZXJzaW9uIjoiMSIsImVuY29kaW5nIjoiYnN0cmluZyIsImNvbXByZXNzZWQiOnRydWUsImVuY29kZWQiOiJ4nHVSYWvbMFx1MDAxMP2eX2Hcr5sjWbZcdTAwMTNcdTAwMDfGYG1cdTAwMDZlWz8ssFHGKIp1STTLkrGVtFnJf99JSawsYzZcYvTu9O7uvXtcdTAwMWRFUWz3LcSzKIaXiispOv5cdTAwMWO/cfhcdTAwMGW6Xlx1MDAxYY2h1N97s+0qn7mxtu1n43HDu1x1MDAxYWyreFx1MDAwNclO9luuertcdTAwMTXSJJVpxtJC079351x1MDAwM2/gXWtcdTAwMWFhuyRcdTAwMTR5XHUwMDBiQlrTXHUwMDFka4GCXHUwMDA2tO2R/Vx1MDAwN96j6NWfXHUwMDE4kcJVLPXn/a+vd49cdTAwMWZvxfJT/bT7Vj7On/xTn3RcdTAwMWWhg8pyvVZcdTAwMTBCL4gzWiYpIYSmKZlcdTAwMTBG03xcYu8xTPM8KTBMXG5KWE7zXCJcdTAwMWTCz1LYjVOAZkmGXHUwMDE5aZbRjFx1MDAxNFx1MDAxN1x1MDAwNFx1MDAxYpDrjXUsJE1YiVx1MDAxZpuWRTbN2HTIObY0i8iA9LYzNdxcdTAwMWGFXHUwMDAyYN83XHUwMDE03Fx1MDAxZrpe8qped2arxZBjO677lncoU8hbSaVcdTAwMTZ279nRIFQ2vqrx/TzBXHUwMDE1/r9XWHS90dA7K+iAmpZX0nqxSJjCddjeXHUwMDBi79rP0FOHft872/RWqVx1MDAwMZZagDMj5uSvalqcqp0tXHUwMDBmfrJcdTAwMTNyXGK9XHUwMDAzOGLKJuhFWbDQYdhWytg1+mC031xcWkxxXHUwMDA1spKGXGbZ3+HyWU+7wlx1MDAwNYbggettfrGYYcRtK/jxXHSdTMiEkTzPpmkgVVLX1/MrU9WhikdcdTAwMGZ4etKYt+3CXCLlIFx1MDAwM2orxUL+dkh6UvyIWWhcdTAwMTHLL6AvRsBcXPOlulx1MDAxZVwi3kl4/vDvKt2s/Fx1MDAxN49O0ro1XHUwMDAyb8FhdPhcdTAwMDOL0Fx1MDAxMfAifQ==<!-- payload-end --></metadata><defs><style class="style-fonts">
      </style></defs><rect x="0" y="0" width="234.4000244140625" height="122.39999389648438" fill="#ffffff"></rect><g stroke-linecap="round" transform="translate(10 10) rotate(0 107.20001220703125 51.19999694824219)"><path d="M25.6 0 C73.49 0.23, 118.26 -1.65, 188.8 0 M25.6 0 C83.81 -1.17, 141.9 -1.22, 188.8 0 M188.8 0 C205.47 1.16, 212.85 8.69, 214.4 25.6 M188.8 0 C206.26 1.08, 215.34 6.68, 214.4 25.6 M214.4 25.6 C215.02 38.14, 213.31 50.47, 214.4 76.8 M214.4 25.6 C213.26 38.64, 214.67 52.26, 214.4 76.8 M214.4 76.8 C216.01 93.25, 207.05 100.88, 188.8 102.4 M214.4 76.8 C215 92.9, 204.68 100.2, 188.8 102.4 M188.8 102.4 C123.42 102.94, 59.68 104.62, 25.6 102.4 M188.8 102.4 C136.19 102.94, 84.18 101.69, 25.6 102.4 M25.6 102.4 C10.36 104.09, 0.76 94.42, 0 76.8 M25.6 102.4 C7.62 100.44, -0.3 94.95, 0 76.8 M0 76.8 C-0.13 64.91, 0.7 51.88, 0 25.6 M0 76.8 C0.31 56.59, 0.86 36.1, 0 25.6 M0 25.6 C-1.53 7.86, 8.21 0.19, 25.6 0 M0 25.6 C-1.19 8.45, 8.05 -0.57, 25.6 0" stroke="#1e1e1e" stroke-width="2" fill="none"></path></g></svg>